<?xml version="1.0" encoding="utf-8"?>
<!-- Svg Vector Icons : http://www.onlinewebfonts.com/icon -->
<!DOCTYPE svg PUBLIC "-//W3C//DTD SVG 1.1//EN" "http://www.w3.org/Graphics/SVG/1.1/DTD/svg11.dtd">
<svg version="1.1" xmlns="http://www.w3.org/2000/svg" x="0px" y="0px"
     viewBox="0 0 1000 1000" enable-background="new 0 0 1000 1000" xml:space="preserve">
<metadata> Svg Vector Icons : http://www.onlinewebfonts.com/icon </metadata>
    <g><g transform="translate(0.000000,511.000000) scale(0.100000,-0.100000)"><path d="M4738.4,4834.8c-526.6-67.6-918.1-327.4-1185-782.9c-220.6-380.8-416.3-1202.7-416.3-1765c0-498.2,209.9-1469.6,398.5-1839.7c35.6-74.7,124.5-199.3,195.7-277.6L3863,23.8l-89-355.8l-85.4-355.8l-427-117.4c-1128-309.6-1939.4-704.6-2394.8-1160c-220.6-224.2-316.7-409.2-363-697.5c-21.4-117.4-124.5-530.2-231.3-918.1c-110.3-387.9-185-718.8-170.8-733c113.9-113.9,2184.9-316.7,3234.6-316.7h156.6v580l3.6,576.5l1508.8,1359.3c829.1,743.7,1498.1,1366.4,1487.4,1377.1c-14.2,10.7-49.8,21.3-85.4,21.3c-42.7,0-96.1,103.2-210,405.7L6047.9,98.5L6176,226.6c355.8,355.8,740.2,1644,679.6,2291.6c-99.6,1110.2-441.2,1861.1-975,2152.9C5613.8,4813.4,5119.1,4884.6,4738.4,4834.8z"/><path
            d="M8033.5,1308.4c-231.3-53.4-544.4-245.5-733-444.8C6958.8,504.2,6788-50.9,6869.9-524.2c24.9-124.6,49.8-249.1,60.5-274c10.7-32-555.1-537.3-1533.7-1377.1L3848.8-3502.6v-366.5v-370.1h569.4h569.3v177.9v174.4l384.3,10.7l380.8,10.7l10.7,384.3l10.7,380.8H6144h373.6v177.9v177.9h373.6h373.6v384.3v387.9l277.6,92.5c256.2,89,281.1,92.5,416.3,42.7c78.3-28.5,256.2-49.8,395-53.4c455.5,0,829.1,163.7,1135.2,505.3c647.7,722.4,512.4,1932.2-281.1,2469.6C8873.3,1311.9,8417.8,1397.3,8033.5,1308.4z M9012,546.9c334.5-174.4,320.3-690.3-21.3-850.5c-402.1-192.1-818.4,213.5-647.6,629.8C8446.3,568.2,8766.5,671.4,9012,546.9z"/><path
            d="M9161.5-2321.2c-238.4-110.3-633.4-149.5-1046.2-103.2c-195.7,21.3-380.8,49.8-409.2,60.5c-42.7,14.2-49.8-46.3-49.8-359.4v-377.2h-373.6H6909v-195.7V-3492h-391.4h-391.4v-373.6v-373.6h-373.6h-373.7v-195.7v-195.7h793.5c1466.1,0,3138.6,103.2,3544.2,213.5c242,67.6,242,28.5,10.7,857.6c-117.4,419.9-224.2,832.7-234.9,914.5c-28.5,181.5-110.3,398.5-153,395C9325.2-2250,9243.3-2282.1,9161.5-2321.2z"/></g></g>
</svg>