<?xml version="1.0" encoding="utf-8"?>
<!-- Svg Vector Icons : http://www.onlinewebfonts.com/icon -->
<!DOCTYPE svg PUBLIC "-//W3C//DTD SVG 1.1//EN" "http://www.w3.org/Graphics/SVG/1.1/DTD/svg11.dtd">
<svg version="1.1" xmlns="http://www.w3.org/2000/svg" x="0px" y="0px" viewBox="0 0 1000 1000"
     enable-background="new 0 0 1000 1000" xml:space="preserve">
<metadata> Svg Vector Icons : http://www.onlinewebfonts.com/icon </metadata>
    <g><path fill="#fff" d="M487.1,616.8v107.5c0,12.9,10.8,23.4,23.9,23.4c13.5,0,24.2-10.5,24.2-23.4V616.8c22.7-9.1,38.7-31,38.5-56.6c0-33.7-28.1-61-62.5-61c-34.7,0-62.6,27.3-62.6,61C448.6,585.8,464.7,607.6,487.1,616.8z"/>
        <path fill="#fff"
              d="M500,10C229.3,10,10,229.3,10,500s219.3,490,490,490c270.7,0,490-219.3,490-490S770.7,10,500,10z M308.5,276c0.1-85.6,71.1-155,158.6-155h76.2c87.7,0,158.6,69.4,158.8,155v75.1H612V276c-0.1-37.1-30.8-67-68.7-67.1h-76.2c-37.9,0.1-68.5,30-68.7,67.1v75.1h-90V276z M777.5,644c0,129.7-107.6,235-240.5,235l-74,0c-132.8,0-240.5-105.3-240.5-235V397.9h555V644z"/></g>
</svg>